<svg width="149.167" height="172.243" xmlns="http://www.w3.org/2000/svg">

 <g>
  <rect fill="none" id="canvas_background" height="174.243" width="151.167" y="-1" x="-1"/>
 </g>
 <g>
  <polygon id="svg_1" points="149.167,129.183 74.583,172.243 0,129.183 0,43.061 74.583,0 149.167,43.061 " fill="#ffffff"/>
  <path stroke="null" id="svg_2" d="m32.950851,84.615562l30.494797,32.55249l-14.683445,-32.55249l-15.811352,0zm39.747765,37.788506l17.085098,-37.788506l-34.168995,0l17.083897,37.788506zm-23.790565,-44.055199l9.98708,-18.79763l-12.826286,0l-14.098831,18.79763l16.938038,0zm33.043533,38.819183l30.49601,-32.55249l-15.812569,0l-14.683441,32.55249zm-25.945503,-38.819183l33.386284,0l-9.987091,-18.79763l-13.413322,0l-9.98587,18.79763zm40.483093,0l16.938042,0l-14.097603,-18.79763l-12.825089,0l9.98465,18.79763zm6.901138,-23.790554l18.798843,25.063091c0.456985,0.587051 0.668465,1.264038 0.635666,2.030968c-0.032837,0.768135 -0.312378,1.426895 -0.833786,1.983551l-46.992851,50.127411c-0.587059,0.651474 -1.35276,0.977203 -2.300781,0.977203c-0.945602,0 -1.711311,-0.325729 -2.299576,-0.977203l-46.992853,-50.127411c-0.521414,-0.55545 -0.799744,-1.215416 -0.83256,-1.983551c-0.032818,-0.76693 0.178661,-1.443916 0.63566,-2.030968l18.798845,-25.063091c0.588264,-0.849579 1.419609,-1.272545 2.496464,-1.272545l56.392887,0c1.074432,0 1.908203,0.424183 2.494041,1.272545z" fill="#4B0082"/>
 </g>
</svg>
