<svg width="149.167" height="172.243" xmlns="http://www.w3.org/2000/svg">

 <g>
  <rect fill="none" id="canvas_background" height="402" width="582" y="-1" x="-1"/>
 </g>
 <g>
  <title>Layer 1</title>
  <polygon id="svg_1" points="149.167,129.183 74.583,172.243 0,129.183 0,43.061 74.583,0 149.167,43.061 " fill="#ffffff"/>
  <path stroke="null" id="svg_2" d="m24.436275,83.43811l38.473354,41.069412l-18.525177,-41.069412l-19.948177,0zm50.147228,47.675369l21.555199,-47.675369l-43.108864,0l21.553665,47.675369zm-30.015045,-55.581657l12.600063,-23.715778l-16.182114,0l-17.787596,23.715778l21.369646,0zm41.688919,48.9757l38.474892,-41.069412l-19.949715,0l-18.525177,41.069412zm-32.73378,-48.9757l42.121346,0l-12.600067,-23.715778l-16.922752,0l-12.598526,23.715778zm51.074936,0l21.369667,0l-17.786057,-23.715778l-16.180588,0l12.596977,23.715778zm8.706734,-30.015038l23.717316,31.620522c0.576569,0.740646 0.843369,1.594757 0.801971,2.56234c-0.041412,0.969116 -0.394073,1.800232 -1.051926,2.502533l-59.28791,63.242569c-0.740639,0.821915 -1.70668,1.232864 -2.902748,1.232864c-1.192993,0 -2.159042,-0.41095 -2.901215,-1.232864l-59.28791,-63.242569c-0.657839,-0.700775 -1.008991,-1.533417 -1.050389,-2.502533c-0.041403,-0.967583 0.22541,-1.821693 0.80197,-2.56234l23.717314,-31.620522c0.742168,-1.071854 1.791027,-1.605484 3.149628,-1.605484l71.147331,0c1.355545,0 2.407463,0.53516 3.146568,1.605484z" fill="#4B0082"/>
 </g>
</svg>